<?xml version="1.0" encoding="utf-8"?>
<!-- Svg Vector Icons : http://www.onlinewebfonts.com/icon -->
<!DOCTYPE svg PUBLIC "-//W3C//DTD SVG 1.1//EN" "http://www.w3.org/Graphics/SVG/1.1/DTD/svg11.dtd">
<svg version="1.1" xmlns="http://www.w3.org/2000/svg" xmlns:xlink="http://www.w3.org/1999/xlink" x="0px" y="0px" viewBox="0 0 1000 1000" enable-background="new 0 0 1000 1000" xml:space="preserve">
<metadata> Svg Vector Icons : http://www.onlinewebfonts.com/icon </metadata>
<g><path d="M626.9,304L500,430.9L373.1,304L304,373.1L430.9,500L304,626.9l69.1,69.1L500,569.1L626.9,696l69.1-69.1L569.1,500L696,373.1L626.9,304z M500,10C229,10,10,229,10,500s219,490,490,490s490-219,490-490S771,10,500,10z M500,892c-216.1,0-392-175.9-392-392c0-216.1,175.9-392,392-392c216.1,0,392,175.9,392,392C892,716.1,716.1,892,500,892z"/></g>
</svg>